<svg xmlns="http://www.w3.org/2000/svg" viewBox="0 0 64 64"><defs><style>.cls-1{fill:#272835;}</style></defs><title>20-24 Hours Support</title><g id="_20-24_Hours_Support" data-name="20-24 Hours Support"><path class="cls-1" d="M42,17H38a2,2,0,0,0-2,2v3h2V19h4v5H38a2,2,0,0,0-2,2v3a2,2,0,0,0,2,2h6V29H38V26h4a2,2,0,0,0,2-2V19A2,2,0,0,0,42,17Z"/><path class="cls-1" d="M53,24V17H51v7H49V17H47v8a1,1,0,0,0,1,1h3v5h2V26h2V24Z"/><path class="cls-1" d="M32,0A29,29,0,0,0,12,50v0h0a29.18,29.18,0,0,0,5,3.81V54h.33a29,29,0,0,0,23.79,2.53l7.17,7.17A1,1,0,0,0,50,63V51.73A29,29,0,0,0,32,0Zm4,55.68A27,27,0,0,1,33,56V45H31V56a26.81,26.81,0,0,1-12-3.32V45H17v6.44a27.18,27.18,0,0,1-3-2.33V36.24l.73-1.46,6-2.61L24,35.41V39h2V35.41l3.25-3.25,6,2.61L36,36.24ZM22.82,19h4.36A3.55,3.55,0,0,0,30,20.91V22c0,2.77-1.31,6-5,6s-5-3.23-5-6V20.91A3.55,3.55,0,0,0,22.82,19ZM20,18.86V14.47A8.3,8.3,0,0,1,25,13a8.3,8.3,0,0,1,5,1.47v4.39c-.5-.13-1-.38-1-.86a1,1,0,0,0-1-1H22a1,1,0,0,0-1,1C21,18.47,20.5,18.72,20,18.86Zm7.84,11.89L25,33.59l-2.84-2.84.38-1.19a7,7,0,0,0,4.9,0Zm20.56,19.7a1,1,0,0,0-.39.79v9.34l-5.91-5.91a1,1,0,0,0-1-.24,27,27,0,0,1-3,.86V36a1,1,0,0,0-.11-.45l-1-2a1,1,0,0,0-.5-.47l-6.63-2.87-.54-1.67A8.2,8.2,0,0,0,32,22V14a1,1,0,0,0-.29-.71A9.73,9.73,0,0,0,25,11a9.73,9.73,0,0,0-6.71,2.29A1,1,0,0,0,18,14v8a8.2,8.2,0,0,0,2.77,6.54l-.54,1.67L13.6,33.08a1,1,0,0,0-.5.47l-1,2A1,1,0,0,0,12,36V47.12a27,27,0,1,1,36.39,3.33Z"/><rect class="cls-1" x="51" y="34" width="2" height="2"/><rect class="cls-1" x="47" y="34" width="2" height="2"/></g></svg>